<svg xmlns="http://www.w3.org/2000/svg" viewBox="0 0 261 261"><defs><style>.cls-1{fill:#fff;}.cls-2{font-size:42.45px;fill:#001846;font-family:JetBrainsMono-Regular, JetBrains Mono;letter-spacing:-0.07em;}.cls-3{letter-spacing:-0.13em;fill:#000;}.cls-4{fill:#005235;}</style></defs><title>Software Engeering Club pfp</title><g id="Layer_2" data-name="Layer 2"><g id="Layer_1-2" data-name="Layer 1"><rect class="cls-1" width="261" height="261"/><text/><path d="M51.94,67V64.53q-11.82,1.56-19.21,9.56t-7.4,17.62A51,51,0,0,0,27,103.6a48.14,48.14,0,0,1,1.62,10.48,12,12,0,0,1-1.15,5.14c-3.1,1.22-8.06,1.91-10.85,2.22a7.91,7.91,0,0,0-4.6,2.09,13.81,13.81,0,0,0-4.06,11,4.18,4.18,0,0,0,.86,1.91,6.09,6.09,0,0,0-.11,4c1.09,2.27,4.56,2.2,4.56,2.2a1.54,1.54,0,0,1-.86-1.91A9.4,9.4,0,0,1,14,137.5l2.1-1.43a6.92,6.92,0,0,1,1.58-.37s5.11.36,7.2,2.28a13.17,13.17,0,0,1,3.68,8.87A48.44,48.44,0,0,1,27,157.36a51.3,51.3,0,0,0-1.63,11.86q0,9.69,7.4,17.66t19.21,9.59V194q-8.28-2.06-12.14-6.54A14.85,14.85,0,0,1,36,177.57a51.2,51.2,0,0,1,1.59-11,52.65,52.65,0,0,0,1.59-11.64q0-7.15-5.34-14a27.82,27.82,0,0,0-2.16-2.45,11.35,11.35,0,0,1,.05-16.1,24.5,24.5,0,0,0,2.21-2.48q5.25-6.72,5.24-13.87a52.65,52.65,0,0,0-1.59-11.64,51.2,51.2,0,0,1-1.59-11,14.85,14.85,0,0,1,3.85-9.88Q43.67,69,51.94,67Z"/><path d="M24.08,146.15l-.25.07Z"/><text class="cls-2" transform="translate(41.13 106.26) scale(0.95 1)">Software<tspan class="cls-3"><tspan x="0" y="39.5">Engineering</tspan></tspan><tspan class="cls-4"><tspan x="0" y="79">Club</tspan></tspan></text><path d="M29.91,154.08l-.29.09Z"/></g></g></svg>